# xmcd
#
# Track frame offsets: 
#        150
#        20570
#        42045
#        61393
#        89562
#        106638
#        124050
#        147264
#        163550
#        180533
#        212859
#        229491
#
# Disc length: 3320 seconds
#
# Revision: 1
# Processed by: cddbd v1.5.2PL0 Copyright (c) Steve Scherf et al.
# Submitted via: ExactAudioCopyFreeDBPlugin 1.0
#
DISCID=a30cf60c
DTITLE=Magic Slim - Highway Is My Home
DYEAR=1999
DGENRE=Blues
TTITLE0=Highway Is My Home
TTITLE1=Living In My Neighborhood
TTITLE2=I Love My Baby
TTITLE3=Country Girl
TTITLE4=Man Or Mouse
TTITLE5=Help Me
TTITLE6=The Sky Is Crying
TTITLE7=I'm Mad
TTITLE8=Tell Me Baby
TTITLE9=Something More
TTITLE10=Man Or Mouse
TTITLE11=Help Me
EXTD=YEAR: 1999
EXTT0=
EXTT1=
EXTT2=
EXTT3=
EXTT4=
EXTT5=
EXTT6=
EXTT7=
EXTT8=
EXTT9=
EXTT10=
EXTT11=
PLAYORDER=
